<svg viewBox="-0.5 -0.5 16 16" fill="none" xmlns="http://www.w3.org/2000/svg" id="Add-Square--Streamline-Solar-Broken.svg" height="16" width="16"><desc>Add Square Streamline Icon: https://streamlinehq.com</desc><path d="m9.375 7.5 -1.875 0m0 0 -1.875 0m1.875 0 0 -1.875m0 1.875 0 1.875" stroke="#000000" stroke-linecap="round" stroke-width="1"></path><path d="M13.75 7.5c0 2.94625 0 4.4194375 -0.9153125 5.3346875C11.9194375 13.75 10.44625 13.75 7.5 13.75c-2.94628125 0 -4.41941875 0 -5.33470625 -0.9153125C1.25 11.9194375 1.25 10.44625 1.25 7.5c0 -2.94628125 0 -4.41941875 0.91529375 -5.33470625C3.0805812500000003 1.25 4.55371875 1.25 7.5 1.25c2.94625 0 4.4194375 0 5.3346875 0.91529375 0.608625 0.6085875000000001 0.8125625000000001 1.4638 0.880875 2.83470625" stroke="#000000" stroke-linecap="round" stroke-width="1"></path></svg>