<svg viewBox="-0.5 -0.5 16 16" fill="none" xmlns="http://www.w3.org/2000/svg" id="Logout-3--Streamline-Solar-Broken" height="16" width="16"><desc>Logout 3 Streamline Icon: https://streamlinehq.com</desc><path d="m9.375 7.5 -5.625 0m0 0 1.25 1.25m-1.25 -1.25 1.25 -1.25" stroke="#000000" stroke-linecap="round" stroke-linejoin="round" stroke-width="1"></path><path d="M7.5 13.7391875c-0.9709375 -0.02925 -1.55003125 -0.1375625 -1.95084375 -0.538375 -0.4802375 -0.48024999999999995 -0.5405187499999999 -1.2164375 -0.5480875000000001 -2.5758124999999996M10 13.7489375c1.359375 -0.0075625 2.0955624999999998 -0.067875 2.5758124999999996 -0.548125C13.125 12.651625 13.125 11.76775 13.125 10V5c0 -1.76776875 0 -2.65165 -0.5491875 -3.200825C12.026625 1.25 11.14275 1.25 9.375 1.25h-0.625c-1.7678125 0 -2.6516687500000002 0 -3.2008437499999998 0.549175C5.06891875 2.2794125000000003 5.008637500000001 3.0156062500000003 5.00106875 4.375" stroke="#000000" stroke-linecap="round" stroke-width="1"></path><path d="M1.875 5.9375v3.125c0 1.473125 0 2.2096875 0.45764375 2.6673750000000003C2.79029375 12.1875 3.5268625 12.1875 5 12.1875M2.33264375 3.2701437500000003C2.79029375 2.8125 3.5268625 2.8125 5 2.8125" stroke="#000000" stroke-linecap="round" stroke-width="1"></path></svg>