<svg viewBox="-0.5 -0.5 16 16" fill="none" xmlns="http://www.w3.org/2000/svg" id="Plain-3--Streamline-Solar-Broken.svg" height="16" width="16"><desc>Plain 3 Streamline Icon: https://streamlinehq.com</desc><path d="M11.6473125 9.7938125c-0.756375 2.2691875 -1.1345625 3.4037499999999996 -1.6891875 3.726125 -0.5275624999999999 0.30675 -1.1791875 0.30675 -1.70675 0 -0.5546249999999999 -0.322375 -0.9328124999999999 -1.4569375 -1.6891875 -3.726125 -0.1214375 -0.3643125 -0.1821875 -0.5465 -0.284125 -0.6987500000000001 -0.09876875 -0.1475625 -0.2255375 -0.274375 -0.37310625 -0.373125 -0.15226875 -0.1019375 -0.33444375 -0.16268749999999998 -0.6987875 -0.284125 -2.2691500000000002 -0.756375 -3.40371875 -1.1345625 -3.72613125 -1.6891875 -0.30671875000000004 -0.52756875 -0.30671875000000004 -1.1791749999999999 0 -1.7067625 0.3224125 -0.5545875 1.4569812500000001 -0.93278125 3.72613125 -1.6891625M12.5160625 7.1875l0.20400000000000001 -0.612c0.9371875000000001 -2.8114875 1.40575 -4.2172375 0.6636875 -4.95928125 -0.742 -0.7420375 -2.14775 -0.27345624999999996 -4.95925 0.66370625L7.7642500000000005 2.5" stroke="#000000" stroke-linecap="round" stroke-width="1"></path><path d="M11.118375 3.8818 8.486812500000001 6.484375" stroke="#000000" stroke-linecap="round" stroke-width="1"></path></svg>